<?xml version="1.0" encoding="UTF-8"?>
<svg id="Layer_2" data-name="Layer 2" xmlns="http://www.w3.org/2000/svg" xmlns:xlink="http://www.w3.org/1999/xlink" viewBox="0 0 118.5 17.9">
  <defs>
    <style>
      .cls-1 {
        fill: url(#linear-gradient);
      }

      .cls-1, .cls-2 {
        stroke-width: 0px;
      }

      .cls-2 {
        fill: #fff;
      }
    </style>
    <linearGradient id="linear-gradient" x1="66.4" y1="11" x2="118.5" y2="11" gradientTransform="translate(0 20) scale(1 -1)" gradientUnits="userSpaceOnUse">
      <stop offset="0" stop-color="#4a6cf7" stop-opacity="0"/>
      <stop offset="0" stop-color="#4a6cf7" stop-opacity=".1"/>
      <stop offset="0" stop-color="#4a6cf7" stop-opacity=".3"/>
      <stop offset=".3" stop-color="#4a6cf7" stop-opacity=".5"/>
      <stop offset=".4" stop-color="#4a6cf7" stop-opacity=".7"/>
      <stop offset=".5" stop-color="#4a6cf7" stop-opacity=".8"/>
      <stop offset=".6" stop-color="#4a6cf7" stop-opacity=".9"/>
      <stop offset=".7" stop-color="#4a6cf7" stop-opacity=".9"/>
      <stop offset=".8" stop-color="#4a6cf7"/>
      <stop offset="1" stop-color="#4a6cf7"/>
    </linearGradient>
  </defs>
  <g id="Layer_1-2" data-name="Layer 1">
    <g id="Layer_1-2" data-name="Layer 1-2">
      <path class="cls-1" d="M112.2,4.5l-.3-.2c-.3-.2-.5-.4-.5-.8-.1-.6-.6-1.7-1.9-2.3-1.9-.9-9-2.6-14.7.5-1.8,1-4.6,1.6-7.6,1.8h-12.3c-.4,0-.8.4-.8.8,0,.4.4.7.8.7h7.5c.5,0,.9.4.8.9,0,.2,0,.4-.2.5-.1.1-.3.2-.6.2h-3.3c-.4,0-.8.3-.8.8,0,.5.3.8.8.8h2.3c.4,0,.7.4.7.8s0,.4-.2.6-.3.2-.6.2h0c-.3,0-.6.2-.8.5-.2.6.2,1.1.8,1.1h1.4c1.9,0,3.7.5,5.4,1.3,2,1,5.3,1.7,10.3.6l.7.7c1.3,1.1,2.9,1.6,4.6,1.4l2.3-.3s.6,2.9,2,2.6c1-.2.7-2.3.5-3.7-.1-.7-.7-1.3-1.5-1.4l-3.9-.5-1-2.8,2.7-2.1c-.2-.7-.1-1.5-.1-1.5l.5,1.2s.7,1.3,2.7.6l2.1.8c.5.2,1.1,0,1.4-.5l1-2c.2-.5,0-1.1-.4-1.4h0ZM85.4,5.2c.2,0,.4,0,.6.2.1.1.2.3.2.6s0,.4-.2.6c-.1.1-.3.2-.6.2s-.4,0-.6-.2c-.1-.1-.2-.3-.2-.6,0-.4.4-.8.8-.8h0ZM86.5,9.2c0,.4-.3.8-.8.8h-1.6c-.4,0-.8-.3-.8-.8h0c0-.5.3-.8.8-.8h1.6c.4,0,.8.3.8.8h0ZM110.3,4.4c-.2,0-.3-.3-.5-.4-.2-.2-.4-.3-.6-.4.3,0,.6,0,.9,0,.2,0,.4.2.6.4.2.3-.2.4-.4.3h0ZM75.2,8.4c-.4,0-.8-.3-.8-.8h0c0-.5.3-.8.8-.8h1.6c.4,0,.8.3.8.8h0c0,.5-.3.8-.8.8h-1.6ZM79.7,10.7c0,.4-.4.8-.8.8h-5.1c-.4,0-.8-.4-.8-.8s.4-.8.8-.8h5.1c.4,0,.8.4.8.8ZM71.3,10.7c0,.4-.4.8-.8.8h-.3c-.4,0-.8-.4-.8-.8s.4-.8.8-.8h.3c.4,0,.8.4.8.8ZM73,7.6c0,.4-.4.8-.8.8h-.6c-.4,0-.8-.4-.8-.8s.4-.8.8-.8h.6c.4,0,.8.4.8.8ZM69.7,4.4c0-.4.3-.8.8-.8h1.6c.4,0,.8.3.8.8s-.3.8-.8.8h-1.6c-.4,0-.8-.3-.8-.8ZM68.1,4.4c0,.4-.3.8-.8.8h-.2c-.4,0-.8-.3-.8-.8s.3-.8.8-.8h.2c.4,0,.8.3.8.8ZM114.8,13.3c.7.5,2.2,1.9,2.9,2.1s1.6,1.3-.5,1.3-4.2-1.6-4.2-1.6l-3.8-.9c0,0,0-.2,0-.2,0-.8-.7-1.5-1.5-1.6l-4.1-.7-.6-1.9s11,3,11.7,3.5h0Z"/>
      <g>
        <g>
          <path class="cls-2" d="M4.7,12.6c-.6,0-1.3-.1-1.8-.3-.6-.2-1.1-.5-1.5-.9s-.8-.9-1-1.4c-.2-.6-.4-1.2-.4-1.8s.1-1.3.4-1.8c.2-.6.6-1.1,1-1.5s.9-.7,1.5-1c.6-.2,1.2-.3,1.8-.3s1.4.1,2,.4,1.2.7,1.7,1.2c0,0-.2.1-.3.2-.1,0-.2.2-.4.3-.1,0-.3.2-.4.2s-.2.1-.3.1-.2,0-.3-.1c-.1,0-.3-.2-.5-.3-.2-.1-.4-.2-.6-.3s-.5-.1-.8-.1-.8,0-1.1.2c-.3.2-.6.4-.9.6s-.5.6-.6.9c-.1.4-.2.7-.2,1.1s0,.8.2,1.1c.2.4.4.7.6.9.3.3.6.5.9.6.4.2.7.2,1.1.2s.6,0,.8-.1c.2,0,.4-.2.6-.3.2,0,.3-.2.5-.3.1,0,.2-.1.3-.1s.2,0,.3,0,.2.1.4.2.2.2.4.3c.1,0,.2.2.3.2-.2.3-.5.5-.8.7-.3.2-.6.4-.9.5s-.6.2-1,.3c-.3,0-.7.1-1,.1h0Z"/>
          <path class="cls-2" d="M14.1,12.6c-.6,0-1.2-.1-1.8-.3s-1.1-.6-1.5-1c-.4-.4-.8-.9-1-1.5-.2-.6-.4-1.2-.4-1.8s.1-1.3.4-1.8.6-1,1-1.5c.4-.4.9-.7,1.5-1s1.2-.3,1.8-.3,1.2.1,1.8.3,1.1.6,1.5,1,.8.9,1,1.5.4,1.2.4,1.8-.1,1.3-.4,1.8c-.2.6-.6,1-1,1.5-.4.4-.9.7-1.5,1s-1.2.3-1.8.3ZM14.1,10.9c.4,0,.8,0,1.1-.2.3-.2.6-.4.9-.6.2-.3.4-.6.6-.9.1-.4.2-.7.2-1.1s0-.8-.2-1.1c-.1-.4-.3-.7-.6-.9s-.5-.5-.9-.6c-.3-.2-.7-.2-1.1-.2s-.8,0-1.1.2c-.3.2-.6.4-.9.6-.2.3-.4.6-.6.9s-.2.7-.2,1.1,0,.8.2,1.1c.1.4.3.7.6.9.2.3.5.5.9.6.3.2.7.2,1.1.2h0Z"/>
          <path class="cls-2" d="M22.2,5.2v7.3h-1.8V3.5h3.4c.6,0,1.2.1,1.8.3s1.1.5,1.5.9.8.9,1,1.4c.2.5.4,1.2.4,1.8s-.1,1.2-.4,1.8c-.2.5-.6,1-1,1.4-.4.4-.9.7-1.5.9-.6.2-1.2.3-1.8.3h-1.8v-1.3c0-.1,0-.2,0-.2s-.6,0-.5-.1c.2,0,2.6,0,2.8,0,.2,0,.3,0,.5-.1.5-.2.9-.6,1.2-1,.3-.5.5-1,.5-1.5s0-.8-.2-1.1-.3-.6-.6-.9c-.2-.3-.5-.5-.9-.6-.3-.2-.7-.2-1.1-.2h-1.6Z"/>
          <path class="cls-2" d="M36.5,5.1h-6.4v-1.6h7.5l-.5,1.2c0,.1-.1.2-.2.3-.1,0-.2.1-.3.1h0ZM34.8,8.8h-4.7v-1.6h5.7l-.5,1.1c0,.1-.1.2-.2.3-.1,0-.2.1-.3.1h0ZM36.6,12.4h-6.4v-1.6h7.5l-.4,1.2c0,.1-.1.2-.2.3-.1,0-.2.1-.4.1h0Z"/>
          <path class="cls-2" d="M42.7,12.6c-.6,0-1.2-.1-1.8-.3s-1.1-.6-1.5-1c-.4-.4-.8-.9-1-1.5-.2-.6-.4-1.2-.4-1.8s.1-1.3.4-1.8.6-1,1-1.5c.4-.4.9-.7,1.5-1,.6-.2,1.2-.3,1.8-.3s1.2.1,1.8.3,1.1.6,1.5,1,.8.9,1,1.5.4,1.2.4,1.8-.1,1.3-.4,1.8c-.2.6-.6,1-1,1.5-.4.4-.9.7-1.5,1s-1.2.3-1.8.3ZM42.7,10.9c.4,0,.8,0,1.1-.2.3-.2.6-.4.9-.6.2-.3.4-.6.6-.9.1-.4.2-.7.2-1.1s0-.8-.2-1.1c-.1-.4-.3-.7-.6-.9s-.5-.5-.9-.6c-.3-.2-.7-.2-1.1-.2s-.8,0-1.1.2c-.3.2-.6.4-.9.6-.2.3-.4.6-.6.9s-.2.7-.2,1.1,0,.8.2,1.1c.1.4.3.7.6.9.2.3.5.5.9.6.3.2.7.2,1.1.2h0Z"/>
          <path class="cls-2" d="M56.6,12.4h-1.6c-.1,0-.2,0-.3,0s-.2-.1-.2-.3l-1.4-2.7c0-.1-.1-.2-.2-.3-.1,0-.2,0-.3,0h-1.6v3.4h-1.8v-4.9h4.2c.2,0,.4,0,.5,0,.2,0,.3-.1.4-.2.1-.1.2-.2.3-.4,0-.2.1-.3.1-.5s0-.4-.1-.5-.2-.3-.3-.4c-.1-.1-.3-.2-.4-.2-.2,0-.3,0-.5,0h-3.6c-.2,0-.3,0-.4-.2s-.2-.3-.2-.4v-1h4.4c.4,0,.8,0,1.2.2s.7.3,1,.5.5.5.7.9.2.7.2,1.2-.2,1.1-.5,1.5c-.3.4-.7.8-1.2,1l1.9,3.7h0Z"/>
          <path class="cls-2" d="M62.7,5.3l-2.8,7.1h-2l3.5-8.9h1.8c.2,0,.4,0,.6.2.2.1.3.3.4.5l3.2,8.3h-2s-2.8-7.1-2.8-7.1Z"/>
        </g>
        <rect class="cls-2" x="49" y="3.6" width="1.8" height="7.7"/>
        <rect class="cls-2" x="30.1" y="3.5" width="1.8" height="7.7"/>
      </g>
    </g>
  </g>
</svg>