<?xml version="1.0" encoding="UTF-8"?>
<svg id="Layer_2" data-name="Layer 2" xmlns="http://www.w3.org/2000/svg" xmlns:xlink="http://www.w3.org/1999/xlink" viewBox="0 0 55.2 22.9">
  <defs>
    <style>
      .cls-1 {
        fill: url(#linear-gradient);
      }

      .cls-1, .cls-2 {
        stroke-width: 0px;
      }

      .cls-3 {
        opacity: .9;
      }

      .cls-2 {
        fill: #fff;
      }
    </style>
    <linearGradient id="linear-gradient" x1="17.1" y1="-96.8" x2="52.3" y2="-96.8" gradientTransform="translate(0 -90.8) scale(1 -1)" gradientUnits="userSpaceOnUse">
      <stop offset="0" stop-color="#4a6cf7" stop-opacity="0"/>
      <stop offset="0" stop-color="#4a6cf7" stop-opacity=".1"/>
      <stop offset="0" stop-color="#4a6cf7" stop-opacity=".3"/>
      <stop offset=".3" stop-color="#4a6cf7" stop-opacity=".5"/>
      <stop offset=".4" stop-color="#4a6cf7" stop-opacity=".7"/>
      <stop offset=".5" stop-color="#4a6cf7" stop-opacity=".8"/>
      <stop offset=".6" stop-color="#4a6cf7" stop-opacity=".9"/>
      <stop offset=".7" stop-color="#4a6cf7" stop-opacity=".9"/>
      <stop offset=".8" stop-color="#4a6cf7"/>
      <stop offset="1" stop-color="#4a6cf7"/>
    </linearGradient>
  </defs>
  <g id="Layer_1-2" data-name="Layer 1">
    <path class="cls-1" d="M48,3.1h-.2c-.2-.3-.3-.4-.3-.7,0-.4-.4-1.1-1.2-1.6-1.3-.6-6.1-1.8-9.8.4-1.2.7-3.1,1.1-5.1,1.2h-8.3c-.3,0-.5.3-.5.5,0,.3.3.5.5.5h5.1c.3,0,.6.3.5.6,0,.1,0,.3-.1.3s-.2.1-.4.1h-2.2c-.3,0-.5.2-.5.5s.2.5.5.5h1.6c.3,0,.5.3.5.5s0,.3-.1.4-.2.1-.4.1h0c-.2,0-.4.1-.5.3-.1.4.1.7.5.7h.9c1.3,0,2.5.3,3.6.9,1.3.7,3.6,1.1,6.9.4l.5.5c.9.7,2,1.1,3.1.9l1.6-.2s.4,2,1.3,1.8c.7-.1.5-1.6.3-2.5s-.5-.9-1-.9l-2.6-.3-.7-1.8,1.8-1.4c-.1-.5,0-1,0-1l.3.8s.5.9,1.8.4l1.4.5c.3.1.7,0,.9-.3l.7-1.3c.2-.3,0-.7-.3-.9h0ZM30,3.6c.1,0,.3,0,.4.1s.1.2.1.4,0,.3-.1.4-.2.1-.4.1-.3,0-.4-.1-.1-.2-.1-.4.3-.5.5-.5ZM30.7,6.2c0,.3-.2.5-.5.5h-1.1c-.3,0-.5-.2-.5-.5h0c0-.3.2-.5.5-.5h1.1c.3,0,.5.2.5.5h0ZM46.7,3c-.1,0-.2-.2-.3-.3-.1-.1-.3-.2-.4-.3h.6c.1,0,.3.1.4.3.1.2-.1.3-.3.2h0ZM23,5.7c-.3,0-.5-.2-.5-.5h0c0-.3.2-.5.5-.5h1.1c.3,0,.5.2.5.5h0c0,.3-.2.5-.5.5h-1.1ZM26.1,7.3c0,.3-.3.5-.5.5h-3.4c-.3,0-.5-.3-.5-.5s.3-.5.5-.5h3.4c.3,0,.5.3.5.5ZM20.4,7.3c0,.3-.3.5-.5.5h-.2c-.3,0-.5-.3-.5-.5s.3-.5.5-.5h.2c.3,0,.5.3.5.5ZM21.5,5.2c0,.3-.3.5-.5.5h-.4c-.3,0-.5-.3-.5-.5s.3-.5.5-.5h.4c.3,0,.5.3.5.5ZM19.3,3c0-.3.2-.5.5-.5h1.1c.3,0,.5.2.5.5s-.2.5-.5.5h-1.1c-.3,0-.5-.2-.5-.5ZM18.3,3c0,.3-.2.5-.5.5h-.1c-.3,0-.5-.2-.5-.5s.2-.5.5-.5h.1c.3,0,.5.2.5.5ZM49.8,9c.5.3,1.5,1.3,2,1.4.5.1,1.1.9-.3.9s-2.8-1.1-2.8-1.1l-2.6-.6v-.2c0-.5-.5-.9-1-1.1l-2.8-.5-.4-1.3s7.4,2,7.9,2.4h0Z"/>
    <g class="cls-3">
      <path class="cls-2" d="M6.5,20.4l1.1.9c-.8,1-2,1.6-3.3,1.6-2.4,0-4.3-1.9-4.3-4.3s1.9-4.3,4.3-4.3c1.3,0,2.5.6,3.3,1.6l-1.1.9c-.5-.7-1.4-1-2.2-1-1.6,0-2.9,1.3-2.9,2.9s1.3,2.9,2.9,2.9c.9,0,1.7-.4,2.2-1Z"/>
      <path class="cls-2" d="M16.8,18.6c0,2.4-1.9,4.3-4.3,4.3s-4.3-1.9-4.3-4.3,1.9-4.3,4.3-4.3,4.3,1.9,4.3,4.3ZM15.4,18.6c0-1.6-1.3-2.9-2.9-2.9s-2.9,1.3-2.9,2.9,1.3,2.9,2.9,2.9,2.9-1.3,2.9-2.9Z"/>
      <path class="cls-2" d="M24.6,18.6c0,2.7-2.3,4.2-4.2,4.2h-2.3v-8.4h2.3c1.8,0,4.2,1.4,4.2,4.2ZM23.2,18.6c0-1.7-1.3-3-3-3h-.6v6h.6c1.7,0,3-1.3,3-3Z"/>
      <path class="cls-2" d="M30.9,15.6h-3.6v6h3.6v1.2h-5v-8.4h5v1.2ZM27.8,19.2v-1.2h2v1.2h-2Z"/>
      <path class="cls-2" d="M40.1,18.6c0,2.4-1.9,4.3-4.3,4.3s-4.3-1.9-4.3-4.3,1.9-4.3,4.3-4.3,4.3,1.9,4.3,4.3ZM38.7,18.6c0-1.6-1.3-2.9-2.9-2.9s-2.9,1.3-2.9,2.9,1.3,2.9,2.9,2.9,2.9-1.3,2.9-2.9Z"/>
      <path class="cls-2" d="M47.6,22.8h-1.6l-1-2.8c0,0-.2,0-.2,0h-2v2.8h-1.4v-8.4h3.5c1.2,0,2.5,1.1,2.5,2.8s-.7,2-.9,2.2l1.2,3.4ZM45.9,17.2c0-.9-.5-1.6-1.1-1.6h-2v3.2h2c.6,0,1.1-.7,1.1-1.6Z"/>
      <path class="cls-2" d="M55.2,22.8h-1.6l-1.9-6-1.9,6h-1.6l2.7-8.4h1.6l2.7,8.4Z"/>
    </g>
  </g>
</svg>