<?xml version="1.0" encoding="UTF-8"?>
<svg id="Layer_1" data-name="Layer 1" xmlns="http://www.w3.org/2000/svg" xmlns:xlink="http://www.w3.org/1999/xlink" viewBox="0 0 99.3 14.9">
  <defs>
    <style>
      .cls-1 {
        fill: url(#linear-gradient);
      }

      .cls-1, .cls-2 {
        stroke-width: 0px;
      }

      .cls-2 {
        fill: #0c0c2b;
      }
    </style>
    <linearGradient id="linear-gradient" x1="55.8" y1="8.3" x2="99.3" y2="8.3" gradientTransform="translate(0 15.7) scale(1 -1)" gradientUnits="userSpaceOnUse">
      <stop offset="0" stop-color="#4a6cf7" stop-opacity="0"/>
      <stop offset="0" stop-color="#4a6cf7" stop-opacity=".1"/>
      <stop offset="0" stop-color="#4a6cf7" stop-opacity=".3"/>
      <stop offset=".3" stop-color="#4a6cf7" stop-opacity=".5"/>
      <stop offset=".4" stop-color="#4a6cf7" stop-opacity=".7"/>
      <stop offset=".5" stop-color="#4a6cf7" stop-opacity=".8"/>
      <stop offset=".6" stop-color="#4a6cf7" stop-opacity=".9"/>
      <stop offset=".7" stop-color="#4a6cf7" stop-opacity=".9"/>
      <stop offset=".8" stop-color="#4a6cf7"/>
      <stop offset="1" stop-color="#4a6cf7"/>
    </linearGradient>
  </defs>
  <path class="cls-1" d="M94,3.8l-.3-.2c-.3-.2-.4-.3-.4-.7,0-.5-.5-1.4-1.5-1.9-1.6-.8-7.5-2.2-12.2.5-1.5.8-3.8,1.3-6.3,1.5h-10.3c-.3,0-.7.3-.6.7,0,.3.3.6.7.6h6.3c.4,0,.8.3.7.8,0,.2,0,.3-.2.4s-.3.2-.5.2h-2.8c-.3,0-.7.3-.7.7s.3.7.7.7h1.9c.3,0,.6.3.6.7s0,.3-.2.5-.3.2-.5.2h0c-.3,0-.5.2-.7.4-.2.5.2.9.7.9h1.2c1.6,0,3.1.4,4.5,1.1,1.7.8,4.4,1.4,8.6.5l.6.6c1.1.9,2.4,1.3,3.8,1.2l1.9-.3s.5,2.4,1.7,2.2c.8-.2.6-1.9.4-3.1s-.6-1.1-1.3-1.2l-3.3-.4-.8-2.3,2.3-1.8c-.2-.6,0-1.3,0-1.3l.4,1s.6,1.1,2.3.5l1.8.7c.4.2.9,0,1.2-.4l.8-1.7c.3-.4,0-.9-.3-1.2h0ZM71.6,4.4c.2,0,.3,0,.5.2s.2.3.2.5,0,.3-.2.5-.3.2-.5.2-.3,0-.5-.2-.2-.3-.2-.5.3-.7.7-.7ZM72.6,7.7c0,.3-.3.7-.7.7h-1.3c-.3,0-.7-.3-.7-.7h0c0-.4.3-.7.7-.7h1.3c.3,0,.7.3.7.7h0ZM92.4,3.7c-.2,0-.3-.3-.4-.3-.2-.2-.3-.3-.5-.3h.8c.2,0,.3.2.5.3.2.3-.2.3-.3.3h0ZM63,7.1c-.3,0-.7-.3-.7-.7h0c0-.4.3-.7.7-.7h1.3c.3,0,.7.3.7.7h0c0,.4-.3.7-.7.7h-1.3ZM66.9,9c0,.3-.3.7-.7.7h-4.3c-.3,0-.7-.3-.7-.7s.3-.7.7-.7h4.3c.3,0,.7.3.7.7ZM59.9,9c0,.3-.3.7-.7.7h-.3c-.3,0-.7-.3-.7-.7s.3-.7.7-.7h.3c.3,0,.7.3.7.7ZM61.2,6.4c0,.3-.3.7-.7.7h-.5c-.3,0-.7-.3-.7-.7s.3-.7.7-.7h.5c.3,0,.7.3.7.7ZM58.5,3.7c0-.3.3-.7.7-.7h1.3c.3,0,.7.3.7.7s-.3.7-.7.7h-1.3c-.3,0-.7-.3-.7-.7ZM57.2,3.7c0,.3-.3.7-.7.7h-.2c-.3,0-.7-.3-.7-.7s.3-.7.7-.7h.2c.3,0,.7.3.7.7ZM96.2,11.2c.6.4,1.8,1.6,2.4,1.8.6.2,1.3,1.1-.4,1.1s-3.5-1.3-3.5-1.3l-3.2-.8v-.3c0-.7-.6-1.2-1.3-1.3l-3.4-.6-.5-1.6s9.2,2.5,9.8,2.9h0Z"/>
  <g>
    <path class="cls-2" d="M6.5,8.5l1.1.9c-.8,1-2,1.6-3.3,1.6-2.4,0-4.3-1.9-4.3-4.3S1.9,2.4,4.3,2.4c1.3,0,2.5.6,3.3,1.6l-1.1.9c-.5-.7-1.4-1-2.2-1-1.6,0-2.9,1.3-2.9,2.9s1.3,2.9,2.9,2.9c.9,0,1.7-.4,2.2-1Z"/>
    <path class="cls-2" d="M16.8,6.7c0,2.4-1.9,4.3-4.3,4.3s-4.3-1.9-4.3-4.3,1.9-4.3,4.3-4.3,4.3,1.9,4.3,4.3ZM15.4,6.7c0-1.6-1.3-2.9-2.9-2.9s-2.9,1.3-2.9,2.9,1.3,2.9,2.9,2.9,2.9-1.3,2.9-2.9Z"/>
    <path class="cls-2" d="M24.6,6.7c0,2.7-2.3,4.2-4.2,4.2h-2.3V2.5h2.3c1.8,0,4.2,1.4,4.2,4.2ZM23.2,6.7c0-1.7-1.3-3-3-3h-.6v6h.6c1.7,0,3-1.3,3-3Z"/>
    <path class="cls-2" d="M30.9,3.7h-3.6v6h3.6v1.2h-5V2.5h5v1.2ZM27.8,7.3v-1.2h2v1.2h-2Z"/>
    <path class="cls-2" d="M40.1,6.7c0,2.4-1.9,4.3-4.3,4.3s-4.3-1.9-4.3-4.3,1.9-4.3,4.3-4.3,4.3,1.9,4.3,4.3ZM38.7,6.7c0-1.6-1.3-2.9-2.9-2.9s-2.9,1.3-2.9,2.9,1.3,2.9,2.9,2.9,2.9-1.3,2.9-2.9Z"/>
    <path class="cls-2" d="M47.6,10.9h-1.6l-1-2.8c0,0-.2,0-.2,0h-2v2.8h-1.4V2.5h3.5c1.2,0,2.5,1.1,2.5,2.8s-.7,2-.9,2.2l1.2,3.4ZM45.9,5.3c0-.9-.5-1.6-1.1-1.6h-2v3.2h2c.6,0,1.1-.7,1.1-1.6Z"/>
    <path class="cls-2" d="M55.2,10.9h-1.6l-1.9-6-1.9,6h-1.6l2.7-8.4h1.6l2.7,8.4Z"/>
  </g>
</svg>