<?xml version="1.0" encoding="UTF-8"?>
<svg id="Layer_2" data-name="Layer 2" xmlns="http://www.w3.org/2000/svg" xmlns:xlink="http://www.w3.org/1999/xlink" viewBox="0 0 127.65 19.13">
  <defs>
    <style>
      .cls-1 {
        fill: url(#linear-gradient);
      }

      .cls-1, .cls-2 {
        stroke-width: 0px;
      }

      .cls-2 {
        fill: #fff;
      }
    </style>
    <linearGradient id="linear-gradient" x1="72" y1="9.56" x2="127.65" y2="9.56" gradientUnits="userSpaceOnUse">
      <stop offset="0" stop-color="#4a6cf7" stop-opacity="0"/>
      <stop offset=".05" stop-color="#4a6cf7" stop-opacity=".1"/>
      <stop offset=".15" stop-color="#4a6cf7" stop-opacity=".31"/>
      <stop offset=".25" stop-color="#4a6cf7" stop-opacity=".5"/>
      <stop offset=".36" stop-color="#4a6cf7" stop-opacity=".65"/>
      <stop offset=".47" stop-color="#4a6cf7" stop-opacity=".78"/>
      <stop offset=".59" stop-color="#4a6cf7" stop-opacity=".88"/>
      <stop offset=".71" stop-color="#4a6cf7" stop-opacity=".95"/>
      <stop offset=".84" stop-color="#4a6cf7" stop-opacity=".99"/>
      <stop offset="1" stop-color="#4a6cf7"/>
    </linearGradient>
  </defs>
  <g id="Layer_1-2" data-name="Layer 1">
    <g>
      <path class="cls-1" d="M120.91,4.81l-.28-.17c-.3-.18-.51-.47-.59-.81-.14-.67-.59-1.84-1.98-2.5-2.01-.94-9.6-2.75-15.65.59-1.96,1.08-4.95,1.67-8.1,1.97h-13.15c-.47,0-.85.4-.8.89.04.42.42.72.84.72h8.07c.51,0,.94.42.9.92-.02.21-.11.4-.25.54-.15.15-.37.25-.6.25h-3.52c-.45,0-.88.36-.9.81-.02.49.37.9.85.9h2.5c.42.05.75.41.75.84,0,.24-.1.45-.25.6-.15.15-.37.25-.6.25h-.04c-.36,0-.69.22-.8.56-.2.6.24,1.15.8,1.15h1.45c1.99,0,3.96.5,5.73,1.41,2.16,1.11,5.61,1.84,10.98.68l.79.71c1.34,1.2,3.14,1.75,4.93,1.51l2.42-.33s.63,3.11,2.16,2.79c1.02-.21.77-2.48.49-3.99-.15-.79-.78-1.39-1.58-1.5l-4.15-.57-1.02-2.94,2.88-2.29c-.23-.75-.15-1.57-.15-1.57l.58,1.23s.71,1.34,2.91.59l2.25.9c.55.22,1.19-.01,1.46-.55l1.09-2.14c.27-.52.08-1.17-.42-1.47ZM92.29,5.55c.23,0,.44.09.59.24.15.15.24.36.24.59s-.09.44-.24.59c-.15.15-.36.24-.59.24s-.44-.09-.59-.24c-.15-.15-.24-.36-.24-.59,0-.46.37-.84.84-.84ZM93.49,9.83c0,.44-.36.81-.81.81h-1.71c-.45,0-.81-.36-.81-.81v-.1c0-.44.36-.81.81-.81h1.71c.44,0,.81.36.81.81v.1ZM118.91,4.65c-.23-.1-.36-.28-.53-.45-.17-.17-.37-.32-.59-.42.32-.02.66-.03.97.08.24.08.48.24.6.47.18.33-.23.42-.45.32ZM81.36,8.93c-.45,0-.81-.36-.81-.81v-.1c0-.45.36-.81.81-.81h1.71c.45,0,.81.36.81.81v.1c0,.45-.36.81-.81.81h-1.71ZM86.2,11.48c0,.47-.38.85-.85.85h-5.49c-.47,0-.85-.38-.85-.85s.38-.85.85-.85h5.49c.47,0,.85.38.85.85ZM77.24,11.48c0,.47-.38.85-.85.85h-.27c-.47,0-.85-.38-.85-.85s.38-.85.85-.85h.27c.47,0,.85.38.85.85ZM79.01,8.07c0,.47-.38.85-.85.85h-.59c-.47,0-.85-.38-.85-.85s.38-.85.85-.85h.59c.47,0,.85.38.85.85ZM75.49,4.71c0-.45.36-.81.81-.81h1.71c.45,0,.81.36.81.81s-.36.81-.81.81h-1.71c-.45,0-.81-.36-.81-.81ZM73.8,4.71c0,.45-.36.81-.81.81h-.19c-.45,0-.81-.36-.81-.81s.36-.81.81-.81h.19c.45,0,.81.36.81.81ZM123.73,14.21c.74.54,2.34,2.04,3.08,2.25.74.21,1.66,1.4-.53,1.4s-4.48-1.66-4.48-1.66l-4.05-.97c0-.09,0-.18,0-.27-.05-.85-.71-1.55-1.56-1.69l-4.36-.77-.61-2s11.77,3.17,12.5,3.71Z"/>
      <g>
        <g>
          <path class="cls-2" d="M5.06,13.43c-.69,0-1.34-.12-1.95-.36-.62-.24-1.15-.58-1.62-1.01s-.83-.95-1.09-1.55c-.27-.6-.4-1.25-.4-1.95s.13-1.36.4-1.96c.27-.6.63-1.12,1.09-1.56.46-.44,1-.78,1.62-1.02.62-.24,1.27-.37,1.95-.37.74,0,1.46.15,2.16.45.7.3,1.29.74,1.78,1.31-.08.05-.19.13-.32.23-.13.1-.27.2-.41.29-.14.1-.28.18-.41.25-.14.07-.25.11-.35.11s-.22-.04-.36-.13c-.14-.09-.31-.18-.51-.29-.2-.11-.43-.21-.69-.29-.26-.09-.55-.13-.89-.13-.43,0-.84.08-1.21.24-.37.16-.69.38-.96.66-.27.28-.48.6-.64.98-.15.38-.23.79-.23,1.22s.08.84.24,1.21c.16.38.38.7.66.97.28.27.61.49.98.64.38.16.78.24,1.21.24.33,0,.62-.04.87-.12.25-.08.48-.17.67-.28.19-.1.35-.2.5-.28.14-.08.26-.12.36-.12s.21.03.35.1c.13.07.26.15.4.24s.27.19.39.29c.13.1.23.18.31.23-.24.27-.5.52-.8.73-.3.22-.62.4-.96.55-.34.15-.69.26-1.05.34-.36.08-.72.12-1.09.12Z"/>
          <path class="cls-2" d="M15.01,13.43c-.69,0-1.34-.12-1.95-.37s-1.14-.59-1.59-1.03c-.45-.44-.81-.96-1.08-1.55-.27-.6-.4-1.24-.4-1.94s.13-1.34.4-1.94c.27-.6.63-1.12,1.08-1.55.45-.44.98-.78,1.59-1.03.61-.25,1.26-.37,1.95-.37s1.34.12,1.95.37c.61.25,1.14.59,1.6,1.03.46.44.82.96,1.09,1.55.27.6.4,1.24.4,1.94s-.13,1.34-.4,1.94c-.27.6-.63,1.12-1.09,1.55-.46.44-.99.78-1.6,1.03s-1.26.37-1.95.37ZM15.01,11.62c.44,0,.85-.08,1.21-.24.37-.16.68-.38.95-.66.27-.28.48-.61.62-.98.15-.38.22-.78.22-1.21s-.07-.84-.22-1.21c-.15-.38-.36-.7-.62-.98-.27-.28-.58-.5-.95-.66-.37-.16-.77-.24-1.21-.24s-.84.08-1.21.24c-.37.16-.69.38-.95.66-.26.28-.47.6-.62.98-.15.38-.22.78-.22,1.21s.07.84.22,1.21c.15.38.35.7.62.98.26.28.58.5.95.66.37.16.77.24,1.21.24Z"/>
          <path class="cls-2" d="M23.75,5.53v7.75h-1.97V3.78h3.65c.69,0,1.34.12,1.95.35.61.24,1.14.56,1.59.98.45.42.81.92,1.08,1.51.27.58.4,1.23.4,1.93s-.13,1.33-.4,1.91c-.27.58-.63,1.08-1.09,1.49-.46.42-1,.74-1.6.97-.61.23-1.25.35-1.93.35h-1.88v-1.4c.07-.15-.05-.21.06-.23s-.67-.1-.51-.12c.19-.03,2.83-.05,2.99-.07.17-.03.34-.08.52-.15.56-.24,1-.6,1.33-1.09.33-.49.49-1.04.49-1.65,0-.43-.08-.82-.23-1.19-.15-.37-.36-.69-.63-.96-.27-.27-.58-.49-.95-.64-.37-.16-.77-.24-1.2-.24h-1.67Z"/>
          <path class="cls-2" d="M39.02,5.47h-6.84v-1.7h7.98l-.52,1.26c-.05.13-.14.23-.25.31-.11.08-.24.12-.37.12ZM37.2,9.36h-5.02v-1.66h6.13l-.49,1.22c-.05.13-.14.23-.25.31-.11.08-.24.12-.37.12ZM39.06,13.28h-6.88v-1.7h7.98l-.46,1.25c-.05.14-.13.24-.24.33-.12.08-.25.12-.39.12Z"/>
          <path class="cls-2" d="M45.59,13.43c-.69,0-1.34-.12-1.95-.37s-1.14-.59-1.59-1.03c-.45-.44-.81-.96-1.08-1.55-.27-.6-.4-1.24-.4-1.94s.13-1.34.4-1.94c.27-.6.63-1.12,1.08-1.55.45-.44.98-.78,1.59-1.03.61-.25,1.26-.37,1.95-.37s1.34.12,1.95.37c.61.25,1.14.59,1.6,1.03.46.44.82.96,1.09,1.55.27.6.4,1.24.4,1.94s-.13,1.34-.4,1.94c-.27.6-.63,1.12-1.09,1.55-.46.44-.99.78-1.6,1.03s-1.26.37-1.95.37ZM45.59,11.62c.44,0,.85-.08,1.21-.24.37-.16.68-.38.95-.66.27-.28.47-.61.62-.98.15-.38.22-.78.22-1.21s-.07-.84-.22-1.21c-.15-.38-.36-.7-.62-.98-.27-.28-.58-.5-.95-.66-.37-.16-.77-.24-1.21-.24s-.84.08-1.21.24c-.37.16-.69.38-.95.66-.26.28-.47.6-.62.98-.15.38-.22.78-.22,1.21s.07.84.22,1.21c.15.38.35.7.62.98.26.28.58.5.95.66.37.16.77.24,1.21.24Z"/>
          <path class="cls-2" d="M60.49,13.28h-1.75c-.13,0-.25-.03-.36-.1-.11-.06-.2-.15-.25-.27l-1.49-2.9c-.05-.12-.14-.21-.25-.27-.11-.06-.23-.09-.36-.09h-1.74v3.64h-1.97v-5.25h4.48c.2,0,.39-.03.56-.08.18-.05.33-.14.47-.24.14-.11.24-.24.33-.4.08-.16.12-.34.12-.55s-.04-.39-.12-.55c-.08-.16-.19-.29-.33-.4-.14-.11-.29-.19-.47-.24-.18-.05-.36-.08-.56-.08h-3.8c-.18,0-.34-.07-.47-.2s-.2-.29-.2-.48v-1.02h4.66c.44,0,.86.07,1.26.2.4.13.75.32,1.05.57.3.25.53.56.71.92.17.37.26.79.26,1.26,0,.61-.17,1.14-.51,1.6-.34.46-.78.81-1.32,1.05l2.08,3.91Z"/>
          <path class="cls-2" d="M66.94,5.7l-3,7.57h-2.12l3.77-9.5h1.94c.22,0,.42.06.6.18.19.12.32.29.4.5l3.46,8.82h-2.12l-2.95-7.57Z"/>
        </g>
        <rect class="cls-2" x="52.32" y="3.85" width="1.94" height="8.28"/>
        <rect class="cls-2" x="32.18" y="3.78" width="1.94" height="8.28"/>
      </g>
    </g>
  </g>
</svg>